# xmcd
#
# Track frame offsets: 
#        150
#        20755
#        42524
#        62111
#        85295
#        105169
#        125172
#        146227
#        165447
#        186467
#        210016
#        229977
#        250499
#        274554
#        292864
#        310660
#        330478
#
# Disc length: 4711 seconds
#
# Revision: 0
# Processed by: cddbd v1.5.2PL0 Copyright (c) Steve Scherf et al.
# Submitted via: ExactAudioCopy v0.99pb4
#
DISCID=f3126511
DTITLE=Ho Ngoc Ha - Noi em gap anh
DYEAR=2009
DGENRE=Blues
TTITLE0=Ho Ngoc Ha - Cho em mot lan cuoi (Phuong Uyen)
TTITLE1=Ho Ngoc Ha - Bien nho (Trinh Cong Son)
TTITLE2=Ho Ngoc Ha - Con gio thoang (Quoc Dung)
TTITLE3=Ho Ngoc Ha - Van biet the (Duc Tri)
TTITLE4=Ho Ngoc Ha - Giac mo tim khong thay(One more time) (Richard Ma
TTITLE4=xx-Duc Tri)
TTITLE5=Ho Ngoc Ha - Uoc mot ngay (Nguyen Xinh Xo)
TTITLE6=Ho Ngoc Ha - Yeu thuong mong manh (Duc Tri-Ha Quang Minh)
TTITLE7=Ho Ngoc Ha - Noi em gap anh (Hoang Hiep)
TTITLE8=Ho Ngoc Ha - Va em da yeu (Duc Tri)
TTITLE9=Ho Ngoc Ha - Dem nghe tieng mua (Duc Tri)
TTITLE10=Ho Ngoc Ha - Ngay thang con do (Duc Tri)
TTITLE11=Ho Ngoc Ha - Giac mo chi la giac mo (Duc Tri)
TTITLE12=Ho Ngoc Ha - Hom nay anh den (Duc Tri)
TTITLE13=Ho Ngoc Ha - Em van muon yeu anh (tango version) (Phuong Uyen
TTITLE13=)
TTITLE14=Ho Ngoc Ha - Chi tai vo tinh (Ho Ngoc Ha)
TTITLE15=Ho Ngoc Ha - Co bao gio (Duc Tri)
TTITLE16=Ho Ngoc Ha - Van biet the (slow version) (Duc Tri)
EXTD=
EXTT0=
EXTT1=
EXTT2=
EXTT3=
EXTT4=
EXTT5=
EXTT6=
EXTT7=
EXTT8=
EXTT9=
EXTT10=
EXTT11=
EXTT12=
EXTT13=
EXTT14=
EXTT15=
EXTT16=
PLAYORDER=
